<?xml version="1.0" standalone="no"?><svg xmlns="http://www.w3.org/2000/svg" viewBox="0 0 1440 320"><path fill="#B3FC88" fill-opacity="1" d="M0,64L24,64C48,64,96,64,144,74.7C192,85,240,107,288,144C336,181,384,235,432,234.7C480,235,528,181,576,181.3C624,181,672,235,720,224C768,213,816,139,864,144C912,149,960,235,1008,266.7C1056,299,1104,277,1152,277.3C1200,277,1248,299,1296,272C1344,245,1392,171,1416,133.3L1440,96L1440,320L1416,320C1392,320,1344,320,1296,320C1248,320,1200,320,1152,320C1104,320,1056,320,1008,320C960,320,912,320,864,320C816,320,768,320,720,320C672,320,624,320,576,320C528,320,480,320,432,320C384,320,336,320,288,320C240,320,192,320,144,320C96,320,48,320,24,320L0,320Z"></path></svg>